<?xml version="1.0" standalone="no"?>
<!DOCTYPE svg PUBLIC "-//W3C//DTD SVG 20010904//EN"
 "http://www.w3.org/TR/2001/REC-SVG-20010904/DTD/svg10.dtd">
<svg version="1.0" xmlns="http://www.w3.org/2000/svg"
 width="500.000000pt" height="500.000000pt" viewBox="0 0 500.000000 500.000000"
 preserveAspectRatio="xMidYMid meet">

<g transform="translate(0.000000,500.000000) scale(0.100000,-0.100000)"
fill="#000000" stroke="none">
<path d="M2471 4137 c-39 -23 -50 -55 -51 -147 0 -63 4 -92 16 -108 9 -13 14
-24 13 -26 -2 -1 -29 -12 -59 -23 -30 -11 -62 -23 -71 -27 -12 -5 -18 0 -22
21 -3 17 -31 53 -70 91 -58 55 -70 62 -105 62 -72 0 -122 -72 -92 -131 21 -41
113 -128 146 -139 l33 -11 -25 -52 c-13 -29 -24 -60 -24 -69 0 -21 -7 -22 -40
-3 -16 9 -54 14 -103 15 -116 0 -157 -27 -157 -105 0 -41 32 -80 74 -91 l26
-6 -33 -37 c-19 -21 -47 -64 -63 -97 -24 -49 -29 -71 -29 -134 0 -69 4 -83 48
-176 52 -112 53 -124 1 -191 -33 -44 -31 -67 11 -92 45 -26 50 -40 30 -87 -16
-38 -16 -39 9 -59 15 -12 26 -31 26 -43 0 -15 9 -26 24 -32 15 -5 27 -20 31
-39 8 -39 55 -78 103 -87 20 -4 70 -1 111 5 69 12 76 12 88 -5 7 -10 13 -43
13 -73 0 -71 -31 -138 -95 -209 -26 -29 -45 -55 -43 -57 8 -8 159 14 217 31
30 9 89 33 130 54 118 59 220 90 293 90 l63 0 -61 64 c-73 77 -99 125 -98 188
1 63 31 106 159 230 151 146 205 260 205 434 0 87 -34 230 -70 290 l-18 32 56
4 c47 4 60 10 84 37 37 41 37 81 -1 123 -28 32 -33 33 -115 37 -64 2 -93 -1
-117 -13 -34 -17 -48 -10 -49 22 0 7 -9 31 -21 54 -21 41 -16 57 17 58 6 0 41
31 77 69 61 63 67 73 67 111 0 56 -36 90 -94 90 -38 0 -47 -6 -109 -68 -37
-37 -67 -72 -67 -77 0 -6 -4 -16 -9 -23 -7 -11 -16 -10 -47 6 -22 11 -54 23
-71 27 -32 6 -32 7 -17 31 36 54 27 210 -15 248 -25 23 -81 29 -110 13z m79
-147 c0 -68 -3 -81 -19 -90 -35 -18 -51 12 -51 95 0 60 3 76 17 84 11 6 24 6
35 0 15 -8 18 -23 18 -89z m-361 -124 c57 -57 64 -88 22 -94 -17 -3 -36 8 -68
40 -57 55 -68 75 -52 94 20 25 43 15 98 -40z m759 30 c5 -26 -96 -128 -123
-124 -38 6 -29 38 27 95 55 56 89 66 96 29z m-303 -131 c108 -48 177 -155 177
-273 1 -81 -21 -137 -86 -220 -24 -31 -52 -82 -62 -112 -9 -30 -24 -61 -32
-67 -11 -9 -53 -13 -127 -13 -127 0 -132 3 -154 80 -14 47 -33 79 -88 145 -68
81 -81 220 -30 321 75 147 250 208 402 139z m-554 -245 c10 -6 19 -19 19 -30
0 -27 -30 -40 -95 -40 -31 0 -65 5 -76 10 -24 13 -25 46 -1 59 22 14 128 14
153 1z m1013 -6 c9 -8 16 -19 16 -24 0 -26 -34 -40 -99 -40 -72 0 -91 10 -91
46 0 28 10 32 92 33 48 1 71 -3 82 -15z m-869 -325 c6 -17 -4 -33 -46 -75 -54
-55 -75 -64 -97 -42 -19 19 -15 26 39 84 56 59 93 70 104 33z m664 -33 c57
-57 64 -88 22 -94 -30 -5 -121 81 -121 113 0 53 35 46 99 -19z m-258 -126 c32
-18 21 -120 -14 -120 -7 0 -19 -15 -27 -33 -14 -29 -20 -32 -64 -35 -67 -4
-93 4 -102 30 -4 13 -20 35 -35 49 -20 18 -29 37 -29 57 0 54 19 62 141 62 61
0 119 -5 130 -10z"/>
<path d="M460 1934 c0 -21 -29 -339 -34 -381 l-5 -33 49 0 48 0 7 108 c9 151
16 164 45 77 54 -166 59 -175 90 -175 31 0 36 9 90 175 28 85 34 74 45 -77 l7
-108 48 0 49 0 -5 33 c-5 42 -34 360 -34 381 0 14 -9 17 -52 14 l-53 -3 -45
-117 c-25 -65 -47 -118 -51 -118 -3 0 -25 53 -50 118 l-44 117 -52 3 c-44 3
-53 0 -53 -14z"/>
<path d="M944 1925 c-15 -23 -15 -27 0 -50 19 -29 56 -33 80 -9 21 21 20 47
-2 67 -27 24 -59 21 -78 -8z"/>
<path d="M1960 1735 l0 -215 120 0 120 0 0 40 0 39 -72 3 -73 3 0 45 0 45 73
3 72 3 0 39 0 40 -76 0 -75 0 3 43 3 42 73 3 72 3 0 39 0 40 -120 0 -120 0 0
-215z"/>
<path d="M2977 1932 c-21 -23 -22 -46 -1 -66 24 -24 61 -20 80 9 15 23 15 27
0 50 -20 30 -56 33 -79 7z"/>
<path d="M940 1655 l0 -135 45 0 45 0 0 135 0 135 -45 0 -45 0 0 -135z"/>
<path d="M1165 1781 c-69 -31 -104 -124 -70 -188 30 -55 78 -77 160 -74 47 2
58 13 44 44 -10 22 -19 27 -50 27 -63 0 -96 53 -61 99 15 21 28 26 61 26 35 0
42 4 52 28 7 15 9 31 5 34 -10 11 -119 14 -141 4z"/>
<path d="M1360 1655 l0 -135 40 0 40 0 0 74 c0 60 4 78 22 101 18 23 27 26 55
22 29 -5 35 -2 48 24 9 16 13 34 10 39 -11 17 -76 11 -106 -11 l-29 -20 0 20
c0 18 -6 21 -40 21 l-40 0 0 -135z"/>
<path d="M1671 1773 c-51 -25 -73 -67 -68 -130 6 -83 57 -124 152 -124 96 0
155 49 155 130 0 88 -60 141 -157 141 -26 0 -63 -8 -82 -17z m129 -73 c11 -11
20 -31 20 -45 0 -14 -9 -34 -20 -45 -11 -11 -31 -20 -45 -20 -14 0 -34 9 -45
20 -11 11 -20 31 -20 45 0 14 9 34 20 45 11 11 31 20 45 20 14 0 34 -9 45 -20z"/>
<path d="M2270 1655 l0 -135 40 0 40 0 0 76 c0 81 9 107 41 124 16 9 26 8 45
-5 22 -14 24 -21 24 -105 l0 -90 45 0 45 0 0 104 c0 95 -2 107 -23 131 -29 35
-104 46 -141 21 -31 -20 -36 -20 -36 -1 0 11 -11 15 -40 15 l-40 0 0 -135z"/>
<path d="M2641 1764 c-81 -68 -54 -216 44 -243 32 -9 89 -2 114 13 13 8 15
-32 3 -51 -20 -31 -104 -33 -122 -3 -7 12 -80 -17 -80 -31 0 -16 63 -59 96
-65 52 -10 123 1 153 23 46 35 51 57 51 226 l0 157 -45 0 c-34 0 -45 -4 -45
-16 0 -14 -2 -14 -22 0 -36 26 -111 21 -147 -10z m147 -60 c45 -31 19 -114
-36 -114 -36 0 -62 27 -62 66 0 34 28 64 60 64 9 0 26 -7 38 -16z"/>
<path d="M2970 1656 l0 -136 45 0 46 0 -3 133 -3 132 -42 3 -43 3 0 -135z"/>
<path d="M3130 1655 l0 -135 40 0 40 0 0 76 c0 81 9 107 41 124 16 9 26 8 45
-5 22 -14 24 -21 24 -105 l0 -90 45 0 45 0 0 104 c0 95 -2 107 -23 131 -29 35
-104 46 -141 21 -31 -20 -36 -20 -36 -1 0 11 -11 15 -40 15 l-40 0 0 -135z"/>
<path d="M3534 1780 c-32 -13 -72 -67 -80 -106 -8 -44 18 -106 54 -130 59 -38
154 -34 200 8 28 28 28 33 -6 47 -22 9 -34 9 -61 -5 -38 -19 -72 -9 -91 26
-10 20 -8 20 90 20 94 0 100 1 100 20 0 39 -29 90 -62 110 -34 21 -105 26
-144 10z m100 -56 c26 -26 18 -34 -34 -34 -37 0 -50 4 -50 15 0 32 58 45 84
19z"/>
<path d="M3833 1770 c-87 -53 -82 -189 9 -236 43 -22 120 -21 161 3 40 24 45
46 12 61 -20 9 -32 8 -59 -4 -29 -14 -37 -15 -62 -3 -16 8 -30 22 -32 32 -3
15 7 17 92 17 l96 0 0 33 c-1 70 -55 117 -135 117 -32 0 -62 -7 -82 -20z m120
-52 l22 -23 -54 -3 c-63 -4 -70 1 -46 28 24 26 50 25 78 -2z"/>
<path d="M4107 1783 c-4 -3 -7 -64 -7 -135 l0 -128 45 0 45 0 0 80 c0 68 3 83
21 101 16 16 28 19 54 15 31 -6 36 -4 50 24 9 17 13 35 10 40 -11 18 -81 11
-109 -11 l-26 -20 0 20 c0 18 -6 21 -38 21 -21 0 -42 -3 -45 -7z"/>
<path d="M4389 1761 c-16 -16 -29 -38 -29 -48 0 -31 30 -64 76 -83 24 -11 44
-24 44 -30 0 -19 -31 -24 -67 -11 -30 11 -36 11 -49 -6 -23 -30 -12 -47 37
-59 91 -23 169 12 169 75 0 39 -24 67 -75 87 -62 23 -61 48 1 41 41 -4 47 -2
57 20 15 33 -2 43 -76 43 -51 0 -62 -4 -88 -29z"/>
</g>
</svg>
